<svg xmlns="http://www.w3.org/2000/svg" viewBox="0 0 1200 80" preserveAspectRatio="none" aria-hidden="true">
  <path d="M 0.0 38.5 9.3 40.0 13.3 13.4 17.3 49.3 21.3 40.0 23.3 38.1 31.8 40.0 35.8 15.1 39.8 48.7 43.8 40.0 45.8 40.0 49.8 20.5 53.8 46.8 57.8 40.0 59.8 41.4 66.4 40.6 77.1 39.5 88.0 40.0 92.0 8.3 96.0 51.1 100.0 40.0 102.0 38.4 108.6 41.4 115.5 40.6 123.4 38.1 129.7 40.0 132.7 26.6 135.7 40.0 137.7 39.2 146.6 39.1 156.6 38.9 165.5 41.7 175.1 42.1 181.7 41.1 188.5 38.0 197.8 40.3 208.2 40.9 217.1 39.8 227.3 39.9 236.7 40.0 240.7 10.8 244.7 50.2 248.7 40.0 250.7 42.2 260.8 39.5 270.1 40.0 274.1 14.6 278.1 48.9 282.1 40.0 284.1 40.0 287.1 31.1 290.1 40.0 292.1 40.0 296.1 9.7 300.1 50.6 304.1 40.0 306.1 40.0 309.1 30.0 312.1 40.0 314.1 41.6 320.5 40.2 330.9 41.6 338.3 39.4 348.7 38.5 355.6 38.8 364.1 39.0 370.1 39.4 378.9 40.8 387.5 40.8 393.8 41.2 404.1 39.5 412.1 40.0 416.1 11.9 420.1 49.9 424.1 40.0 426.1 40.0 430.1 20.9 434.1 46.7 438.1 40.0 440.1 40.0 443.1 30.7 446.1 40.0 448.1 38.0 454.1 40.0 457.1 31.2 460.1 40.0 462.1 37.9 472.5 38.5 479.8 39.4 486.4 42.2 494.7 38.2 501.2 39.0 511.4 40.0 514.4 31.8 517.4 40.0 519.4 40.1 526.1 37.9 534.7 41.6 544.2 39.4 551.0 40.1 560.9 38.8 571.0 41.6 581.0 41.1 588.2 39.4 594.3 40.0 598.3 17.5 602.3 47.9 606.3 40.0 608.3 40.8 619.1 41.9 630.0 39.4 637.1 38.7 644.2 41.8 654.4 40.7 664.4 40.0 668.4 11.4 672.4 50.0 676.4 40.0 678.4 41.2 688.1 38.6 698.1 41.3 708.9 39.6 719.6 38.5 726.3 40.0 729.3 24.8 732.3 40.0 734.3 38.4 744.4 40.7 752.2 38.4 758.2 40.7 766.9 39.7 777.2 38.7 784.5 38.9 793.4 39.6 800.1 39.4 808.4 41.8 816.5 40.0 825.1 37.9 833.3 40.0 836.3 32.0 839.3 40.0 841.3 38.6 849.7 40.2 857.3 40.2 867.2 40.0 871.2 13.0 875.2 49.4 879.2 40.0 881.2 39.0 891.1 40.3 900.9 39.8 910.0 40.1 919.4 40.1 927.8 40.9 938.2 38.9 947.0 41.5 953.7 40.0 956.7 28.5 959.7 40.0 961.7 40.0 965.7 18.1 969.7 47.6 973.7 40.0 975.7 40.0 979.7 11.3 983.7 50.0 987.7 40.0 989.7 41.7 996.5 40.7 1003.2 42.1 1010.3 39.6 1018.7 41.5 1025.5 40.1 1033.2 40.0 1036.2 29.5 1039.2 40.0 1041.2 37.9 1050.0 37.9 1057.6 40.1 1064.0 41.3 1074.8 40.0 1078.8 17.8 1082.8 47.8 1086.8 40.0 1088.8 40.0 1092.8 9.5 1096.8 50.7 1100.8 40.0 1102.8 38.4 1110.9 41.4 1118.2 40.0 1121.2 24.6 1124.2 40.0 1126.2 40.9 1132.7 40.0 1136.7 11.0 1140.7 50.2 1144.7 40.0 1146.7 38.1 1157.4 41.3 1163.8 38.1 1174.1 39.3 1182.9 39.0 1189.5 38.8 1196.1 40.0 1199.1 31.6 1202.1 40.0" fill="none" stroke="#5a5044" stroke-width="1.15" stroke-linejoin="round" stroke-linecap="round"/>
</svg>
